<svg xmlns="http://www.w3.org/2000/svg" xml:space="preserve" viewBox="0 0 64 64"><g fill="#0F0"><path d="M29.42.85c-.35.03-1.31.14-2.14.27A31.92 31.92 0 0 0 11.9 7.86c-2 1.61-2.5 2.19-2.5 2.88 0 .68.4 1.24 1.07 1.45.67.21 1.15-.03 2.65-1.36A29.17 29.17 0 0 1 26.16 4.4c4.34-.88 8.65-.78 13 .3 1.76.44 2.16.38 2.67-.38.69-1.02.19-1.95-1.34-2.43C37.62 1.01 33.03.58 29.42.85zM47.9 6.26c-.52.43-.68.94-.46 1.57.11.36.51.73 1.61 1.54 5.87 4.3 9.91 10.6 11.33 17.6.8 3.98.74 8.48-.15 12.36-.3 1.27-.27 1.43.28 1.97.64.64 1.48.69 2.07.09.97-.98 1.7-7.34 1.32-11.47a32.1 32.1 0 0 0-6.48-16.61c-1.92-2.48-5.26-5.65-7.4-7-.82-.53-1.54-.54-2.12-.05z"/><path d="M25.5 7.69a26.04 26.04 0 0 0-15.42 11.25 26.77 26.77 0 0 0-3.89 11.34c-.09.9-.06 1.04.24 1.5.6.88 1.9.91 2.48.05.13-.2.28-.9.37-1.55a22.9 22.9 0 0 1 17.38-19.73C28.61 10.07 29 9.79 29 8.8c0-.51-.08-.71-.41-1.06-.53-.53-1.27-.54-3.09-.05zM35.93 7.49c-.76.44-1 1.31-.57 2.11.23.47.53.6 2.28 1.03 3.85.92 7.55 3.03 10.51 6a22.51 22.51 0 0 1 5.02 7.45c.46 1.1.69 1.46 1 1.62.77.4 1.63.2 2.03-.5.36-.59.3-1.01-.27-2.4A26.05 26.05 0 0 0 39.46 7.96c-1.84-.56-3.1-.73-3.53-.47z"/><path d="M30.07 13.05c-4.7.5-8.78 2.44-12.08 5.77-2.23 2.23-2.75 3.28-2.06 4.2.36.46.91.66 1.56.55.38-.07.65-.3 1.25-1.06 1-1.24 2.7-2.83 3.82-3.6 1.32-.9 3.6-1.93 5.22-2.37 1.3-.36 1.66-.4 4.07-.4 2.1-.02 2.9.04 3.8.24 2.8.66 5.43 2.03 7.73 4.07 1.04.92 1.23 1.03 1.74 1.03 1.12 0 1.83-1.04 1.4-2.06-.23-.54-1.9-2.04-3.4-3.06a20.33 20.33 0 0 0-13.05-3.31zM5.88 14.3c-.22.23-.8 1.1-1.3 1.94-2.52 4.23-4 8.79-4.48 13.68-.27 2.93.03 7.65.63 9.73.37 1.28 1.72 1.65 2.56.7.47-.5.49-.87.19-2.47a30.16 30.16 0 0 1 1.01-14.22c.64-1.93 1.9-4.57 3.03-6.38.7-1.12.89-1.52.89-1.97 0-1.28-1.62-1.92-2.53-1z"/><path d="M32.78 19.67c-.55.55-.64 1.11-.28 1.8.23.46.56.61 2 .96a10.7 10.7 0 0 1 7.88 7.84c.24.9.27 1.56.27 6.51a109 109 0 0 1-.19 7.15c-.35 3.31-.37 3.91-.11 4.32.52.77 1.73.87 2.37.18.38-.39.59-1.77.86-5.5.24-3.34.21-10.93-.07-12.47a14.1 14.1 0 0 0-1.82-4.85A16.25 16.25 0 0 0 39.05 21a14.77 14.77 0 0 0-4.88-1.74c-.86-.1-.89-.08-1.39.42zM26.55 20.17a13.93 13.93 0 0 0-6.9 6.76c-1.2 2.5-1.28 2.92-1.32 8.63-.03 2.75-.11 5.58-.17 6.3-.1.95-.09 1.4.05 1.74.48 1.2 2.15 1.27 2.7.11.3-.64.56-5.23.48-8.58-.09-3.17.03-4.37.58-5.92 1-2.8 3-4.94 5.78-6.21a4.78 4.78 0 0 0 1.3-.82c.37-.53.3-1.34-.16-1.84-.57-.63-1.18-.67-2.34-.17z"/><path d="M30.04 25.41c-2.59.7-4.6 2.7-5.4 5.35-.12.46-.22 1.3-.22 2.03 0 1.1.04 1.3.33 1.63.39.44 1.03.63 1.62.49.77-.22.95-.56 1.05-2.03.13-1.56.49-2.46 1.36-3.33A3.97 3.97 0 0 1 32 28.27c1.1.02 1.3.06 2.11.5a4.32 4.32 0 0 1 2.05 2.15c.27.56.33 1.03.43 3.36.07 1.49.08 2.92.04 3.16-.13.74.19 1.6.7 1.91.56.35.97.36 1.53.08.85-.45.92-.78.82-4.44a22.33 22.33 0 0 0-.32-4.13 7.76 7.76 0 0 0-5.43-5.45 9.62 9.62 0 0 0-3.9 0zM13.6 26.34c-.52.3-.75.92-1.15 3-.18.96-.23 2.02-.2 5 .05 6.27-.35 10.35-1.28 13.28a5.54 5.54 0 0 1-1.3 2.36c-.98 1.15-1.16 1.54-1.05 2.1.1.47.73 1.09 1.22 1.21.55.13 1.03-.11 1.87-1a8.15 8.15 0 0 0 2.11-3.61c1.06-3.35 1.32-5.52 1.45-12.76.1-5.41.13-6.03.41-7.06.4-1.52.39-1.74-.18-2.32-.57-.57-1.19-.64-1.9-.2zM49.07 26.47a2.1 2.1 0 0 0-.63.54c-.34.45-.34.75.06 2.84.31 1.65.44 7.34.24 11.08-.21 3.88-.5 6.73-1.02 9.72-.34 2.03-.37 2.41-.21 2.8.4.97 1.57 1.23 2.36.51.33-.3.47-.6.63-1.38.31-1.49.77-4.86 1.03-7.37.3-3.03.43-11.72.21-14.04-.21-2.33-.6-3.9-1.04-4.34-.39-.39-1.16-.56-1.63-.36zM55.63 28.97c-.81.38-.87.66-.77 4.1a94.64 94.64 0 0 1-1.4 20.15 8.49 8.49 0 0 0-.23 1.4c.07.09 2.16-2.24 3-3.34l.87-1.17.25-2.12c.48-4.35.58-6.23.58-11.7 0-3.87-.05-5.77-.17-6.17-.31-1.06-1.21-1.55-2.13-1.15z"/><path d="M31.34 31.43c-.24.12-.53.36-.62.53-.1.23-.18 1.75-.22 5.03-.06 5.97-.38 9.21-1.3 13.32-.96 4.33-2.78 8.27-4.97 10.82-.5.6-.65.87-.54.96.1.05.82.24 1.6.43 1.09.24 1.46.28 1.62.15.8-.67 2.76-4.13 3.71-6.6 2-5.1 2.95-11.5 2.95-19.69 0-4.22-.06-4.53-.93-4.95-.59-.28-.74-.28-1.3 0zM7.16 35.88a1.6 1.6 0 0 0-.68.48c-.33.4-.36.55-.36 1.82 0 2.99-.56 6.86-1.13 7.82l-.27.47.74 1.32c.42.73.8 1.31.86 1.31.27-.01 1.52-1.66 1.72-2.27.6-1.86.93-4.03 1.08-7.34.13-2.74.03-3.17-.77-3.5-.51-.21-.62-.23-1.19-.11zM25.05 41.3c-.62.3-.76.7-1 2.76-.72 6.39-2.29 10.8-4.86 13.58-.73.8-1.49 1.81-1.49 2.01 0 .06.59.38 1.3.7 1.09.52 1.35.6 1.49.42 2.44-2.62 3.46-4.22 4.57-7.2A39.99 39.99 0 0 0 27.14 44c.18-1.82.1-2.22-.6-2.65-.56-.34-.89-.35-1.5-.05zM36.86 43.06c-.49.47-.49.47-.79 3.08-.73 6.21-2.66 12.27-5.14 16.17-.28.43-.5.82-.5.85 0 .04.8.07 1.77.07h1.77l.79-1.53c2.26-4.42 3.73-9.68 4.43-15.84.23-2.03.14-2.53-.51-2.93-.68-.42-1.34-.37-1.82.13zM16.74 50.63c-.28.19-.61.63-.93 1.25a9.8 9.8 0 0 1-1.27 1.83c-.44.47-1.07 1.26-1.4 1.73l-.6.84.33.27a19 19 0 0 0 2.17 1.52c.02-.03.17-.3.36-.59.17-.28.77-1.02 1.34-1.65 1.2-1.33 2.25-3.16 2.25-3.95a1.49 1.49 0 0 0-2.25-1.25zM41.22 54.92c-.54.23-.79.67-1.49 2.75-.38 1.14-1 2.73-1.36 3.53-.47 1.09-.58 1.46-.42 1.46.38 0 3.18-.75 3.41-.92.25-.18 1.6-3.8 1.82-4.87.18-.9 0-1.4-.63-1.79-.5-.3-.86-.34-1.33-.16zM46.77 57.42a1.6 1.6 0 0 0-.66.62c-.3.59-.72 1.9-.63 1.99.19.18 3.26-1.68 3.22-1.93-.06-.26-.66-.7-1.12-.79a1.7 1.7 0 0 0-.81.11z"/></g></svg>