<?xml version="1.0" encoding="utf-8"?>
<!-- Generator: Adobe Illustrator 27.1.1, SVG Export Plug-In . SVG Version: 6.00 Build 0)  -->
<svg version="1.1" id="Layer_1" xmlns="http://www.w3.org/2000/svg" xmlns:xlink="http://www.w3.org/1999/xlink" x="0px" y="0px"
	 viewBox="0 0 64 64" enable-background="new 0 0 64 64" xml:space="preserve">
<g>
	<g transform="translate(0.000000,511.000000) scale(0.100000,-0.100000)">
		<path fill="#FFFFFF" d="M294.24,5101.49c-3.57-0.29-13.15-1.43-21.45-2.72c-56.76-8.44-108.8-31.31-153.84-67.34
			c-19.87-16.16-24.88-21.88-24.88-28.88c0-6.72,4-12.3,10.58-14.44c6.72-2.14,11.58,0.29,26.59,13.58
			c34.6,30.74,83.21,54.76,130.39,64.34c43.32,8.72,86.5,7.72,129.96-3c17.59-4.43,21.59-3.86,26.74,3.72
			c6.86,10.29,1.86,19.59-13.44,24.31C376.16,5099.91,330.27,5104.2,294.24,5101.49z"/>
		<path fill="#FFFFFF" d="M478.96,5047.44c-5.15-4.29-6.72-9.44-4.58-15.73c1.14-3.57,5.15-7.29,16.16-15.44
			c58.62-43.04,99.08-105.94,113.23-176c8.01-39.75,7.43-84.79-1.43-123.53c-3-12.73-2.72-14.3,2.72-19.73
			c6.43-6.43,14.87-6.86,20.73-0.86c9.72,9.72,17.02,73.34,13.16,114.66c-5.86,61.34-28.17,118.67-64.76,166.13
			c-19.15,24.73-52.61,56.48-73.91,70.05C491.97,5052.16,484.83,5052.31,478.96,5047.44z"/>
		<path fill="#FFFFFF" d="M254.92,5033.15c-64.34-17.01-119.38-57.33-154.12-112.52c-21.16-33.88-35.17-74.49-38.89-113.38
			c-0.86-9.01-0.57-10.44,2.43-15.01c6-8.86,19.02-9.15,24.73-0.57c1.29,2,2.86,9.01,3.72,15.58
			c9.58,84.64,64.48,156.41,143.54,187.72c7.86,3.15,21.59,7.43,30.31,9.58c19.44,4.72,23.3,7.58,23.3,17.44
			c0,5.15-0.86,7.15-4.15,10.58C280.52,5037.86,273.08,5038,254.92,5033.15z"/>
		<path fill="#FFFFFF" d="M359.29,5035.15c-7.58-4.43-10.01-13.15-5.72-21.16c2.29-4.72,5.29-6.01,22.88-10.29
			c38.46-9.15,75.49-30.31,105.08-59.91c22.45-22.59,37.89-45.47,50.18-74.63c4.58-10.87,6.86-14.58,10.01-16.16
			c7.72-4,16.3-2,20.3,5c3.57,5.86,3,10.15-2.72,24.02c-29.02,70.63-90.36,125.81-164.7,148.41
			C376.16,5036.01,363.58,5037.72,359.29,5035.15z"/>
		<path fill="#FFFFFF" d="M300.68,4979.53c-46.9-5-87.78-24.45-120.81-57.76c-22.3-22.3-27.45-32.74-20.59-41.89
			c3.57-4.71,9.15-6.72,15.58-5.58c3.86,0.71,6.58,3,12.58,10.58c10,12.44,26.88,28.31,38.17,36.03
			c13.15,9.01,36.03,19.3,52.19,23.73c13.01,3.57,16.59,4,40.74,4c20.87,0.14,28.88-0.43,37.89-2.43
			c28.02-6.58,54.33-20.3,77.35-40.74c10.44-9.15,12.3-10.29,17.44-10.29c11.15,0,18.3,10.44,14.01,20.59
			c-2.29,5.43-19.02,20.45-34.02,30.6C393.61,4971.67,344.42,4984.25,300.68,4979.53z"/>
		<path fill="#FFFFFF" d="M58.77,4966.95c-2.14-2.29-8.01-10.87-13.01-19.3c-25.16-42.32-40.03-87.93-44.75-136.82
			c-2.72-29.31,0.28-76.49,6.29-97.36c3.72-12.73,17.16-16.44,25.59-7.01c4.72,5,4.86,8.72,1.86,24.73
			c-8.29,43.75-4.43,98.36,10.15,142.26c6.43,19.3,19.02,45.61,30.31,63.77c7.01,11.15,8.86,15.16,8.86,19.73
			C84.07,4969.67,67.92,4976.1,58.77,4966.95z"/>
		<path fill="#FFFFFF" d="M327.84,4913.33c-5.58-5.58-6.43-11.15-2.86-18.01c2.29-4.58,5.58-6.15,20.02-9.58
			c38.75-9.29,68.06-38.46,78.78-78.49c2.43-9.01,2.72-15.58,2.72-65.05c-0.14-33.31-0.86-61.62-1.86-71.48
			c-3.57-33.17-3.72-39.17-1.14-43.18c5.15-7.72,17.3-8.72,23.73-1.85c3.72,3.86,5.86,17.73,8.58,55.05
			c2.43,33.31,2.14,109.23-0.71,124.67c-2.86,16.87-9.44,34.17-18.16,48.47c-9.72,16.01-30.74,36.74-46.47,46.18
			c-13.73,8.15-36.17,16.16-48.75,17.44C333.13,4918.48,332.84,4918.34,327.84,4913.33z"/>
		<path fill="#FFFFFF" d="M265.5,4908.33c-29.6-12.87-54.62-37.32-69.05-67.62c-12.01-25.02-12.72-29.17-13.15-86.35
			c-0.29-27.45-1.14-55.76-1.72-62.91c-1-9.58-0.86-14.01,0.57-17.44c4.72-12.01,21.45-12.72,26.88-1.14
			c3.15,6.43,5.72,52.33,4.86,85.79c-0.86,31.74,0.29,43.75,5.86,59.19c9.87,28.02,29.88,49.47,57.76,62.19
			c5.86,2.72,11.72,6.43,13.01,8.15c3.72,5.29,3,13.44-1.57,18.44C283.23,4912.9,277.09,4913.33,265.5,4908.33z"/>
		<path fill="#FFFFFF" d="M300.39,4855.86c-25.88-7.01-46.03-27.02-53.9-53.47c-1.29-4.58-2.29-13.01-2.29-20.3
			c0-11.01,0.43-13.01,3.29-16.3c3.86-4.43,10.29-6.29,16.16-4.86c7.72,2.14,9.58,5.58,10.58,20.3
			c1.29,15.59,4.86,24.59,13.58,33.31c9.44,9.44,17.87,12.72,32.17,12.72c11.01-0.14,13.01-0.57,21.16-5
			c9.87-5.29,15.73-11.44,20.45-21.45c2.72-5.58,3.29-10.29,4.29-33.6c0.71-14.87,0.86-29.17,0.43-31.6
			c-1.29-7.43,1.86-16.01,7.01-19.16c5.58-3.43,9.72-3.57,15.3-0.71c8.44,4.43,9.15,7.72,8.15,44.32
			c-0.57,23.16-1.57,35.45-3.15,41.32c-7.01,26.31-28.31,47.61-54.33,54.47C328.84,4858.58,310.4,4858.43,300.39,4855.86z"/>
		<path fill="#FFFFFF" d="M135.97,4846.57c-5.15-3-7.43-9.15-11.44-30.02c-1.86-9.58-2.29-20.16-2-50.04
			c0.43-62.62-3.57-103.37-12.87-132.68c-3.57-11.15-5.72-14.87-13.01-23.59c-9.72-11.58-11.58-15.44-10.44-21.02
			c1-4.72,7.29-10.87,12.15-12.15c5.58-1.29,10.29,1.14,18.73,10c10.87,11.44,16.16,20.3,21.16,36.17
			c10.58,33.46,13.15,55.19,14.44,127.53c1,54.18,1.29,60.34,4.15,70.63c4,15.16,3.86,17.44-1.86,23.16
			C149.27,4850.29,143.12,4851,135.97,4846.57z"/>
		<path fill="#FFFFFF" d="M490.68,4845.28c-1.72-0.71-4.43-3.15-6.29-5.43c-3.43-4.43-3.43-7.43,0.57-28.31
			c3.14-16.59,4.43-73.49,2.43-110.8c-2.14-38.89-5-67.34-10.15-97.22c-3.43-20.3-3.72-24.16-2.14-28.02
			c4-9.72,15.73-12.3,23.59-5.15c3.28,3,4.72,6.01,6.29,13.87c3.14,14.87,7.72,48.61,10.29,73.63c3,30.31,4.29,117.24,2.14,140.4
			c-2.14,23.3-6,39.03-10.44,43.46C503.12,4845.57,495.4,4847.28,490.68,4845.28z"/>
		<path fill="#FFFFFF" d="M556.31,4820.26c-8.15-3.72-8.72-6.58-7.72-40.89c2.14-73.49-2.86-144.25-14.01-201.59
			c-1.57-7.43-2.57-13.73-2.29-14.02c0.71-0.86,21.59,22.45,30.02,33.46l8.72,11.72l2.43,21.16c4.86,43.46,5.86,62.33,5.86,117.09
			c0,38.6-0.57,57.62-1.72,61.62C574.46,4819.4,565.46,4824.26,556.31,4820.26z"/>
		<path fill="#FFFFFF" d="M313.4,4795.67c-2.43-1.14-5.29-3.57-6.15-5.29c-1.14-2.29-1.86-17.44-2.29-50.33
			c-0.57-59.62-3.72-92.08-12.87-133.11c-9.72-43.32-27.88-82.78-49.76-108.23c-5-6.01-6.58-8.73-5.43-9.58
			c1-0.57,8.15-2.43,16.01-4.29c10.87-2.43,14.58-2.86,16.16-1.57c8.01,6.72,27.59,41.32,37.17,66.05
			c19.87,50.9,29.45,114.95,29.45,196.87c0,42.17-0.57,45.32-9.29,49.47C320.55,4798.53,318.97,4798.53,313.4,4795.67z"/>
		<path fill="#FFFFFF" d="M71.63,4751.21c-1.72-0.29-4.86-2.57-6.86-4.86c-3.28-4-3.57-5.43-3.57-18.16
			c0-29.88-5.58-68.62-11.29-78.2l-2.72-4.71l7.43-13.15c4.15-7.29,8.01-13.15,8.58-13.15c2.72,0.14,15.16,16.59,17.16,22.73
			c6.01,18.59,9.29,40.32,10.87,73.35c1.29,27.45,0.29,31.74-7.72,35.03C78.35,4752.2,77.35,4752.35,71.63,4751.21z"/>
		<path fill="#FFFFFF" d="M250.49,4697.02c-6.15-3-7.58-7.01-10-27.59c-7.15-63.91-22.88-108.09-48.61-135.82
			c-7.29-8.01-14.87-18.16-14.87-20.16c0-0.57,5.86-3.72,13.01-7.01c10.87-5.15,13.44-5.86,14.87-4.15
			c24.45,26.16,34.6,42.17,45.75,71.92c9.58,25.59,17.3,60.76,20.73,95.79c1.86,18.16,1,22.16-6.01,26.45
			C259.79,4699.88,256.5,4700.02,250.49,4697.02z"/>
		<path fill="#FFFFFF" d="M368.59,4679.43c-4.86-4.72-4.86-4.72-7.86-30.88c-7.29-62.05-26.59-122.67-51.47-161.7
			c-2.72-4.29-5-8.15-5-8.44c0-0.43,8.01-0.71,17.73-0.71h17.73l7.86,15.29c22.59,44.18,37.32,96.79,44.32,158.41
			c2.29,20.3,1.43,25.31-5.15,29.31C380.02,4684.87,373.45,4684.44,368.59,4679.43z"/>
		<path fill="#FFFFFF" d="M167.42,4603.66c-2.86-1.86-6.15-6.29-9.29-12.44c-2.57-5.15-8.29-13.44-12.72-18.3
			c-4.43-4.71-10.72-12.58-14.01-17.3l-6.01-8.44l3.29-2.72c7.86-6.15,21.3-15.58,21.73-15.16c0.14,0.29,1.72,3,3.57,5.86
			c1.72,2.86,7.72,10.29,13.44,16.58c12.01,13.3,22.45,31.6,22.45,39.46C189.87,4602.37,177,4609.66,167.42,4603.66z"/>
		<path fill="#FFFFFF" d="M412.19,4560.77c-5.43-2.29-7.86-6.72-14.87-27.45c-3.86-11.44-10-27.31-13.58-35.31
			c-4.72-10.87-5.86-14.58-4.29-14.58c3.86,0,31.88,7.43,34.17,9.15c2.43,1.86,16.01,38.03,18.16,48.75
			c1.86,9.01,0,14.01-6.29,17.87C420.49,4562.2,416.91,4562.63,412.19,4560.77z"/>
		<path fill="#FFFFFF" d="M467.67,4535.75c-2.43-1.14-5.43-3.86-6.58-6.15c-3-5.86-7.15-19.02-6.29-19.87
			c1.86-1.86,32.6,16.72,32.17,19.3c-0.57,2.57-6.58,7.01-11.15,7.86C473.81,4537.32,470.24,4536.75,467.67,4535.75z"/>
	</g>
</g>
</svg>
