<?xml version="1.0" encoding="UTF-8"?>
<svg id="Layer_1" data-name="Layer 1" xmlns="http://www.w3.org/2000/svg" viewBox="0 0 64 64">
  <defs>
    <style>
      .cls-1 {
        fill: #ffc220;
      }
    </style>
  </defs>
  <path class="cls-1" d="M32,21.55c1.49,0,2.75-.78,2.91-1.78l1.48-16.75c0-1.66-1.95-3.02-4.39-3.02s-4.39,1.36-4.39,3.02l1.49,16.75c.16,1,1.41,1.78,2.9,1.78"/>
  <path class="cls-1" d="M22.93,26.79c.74-1.31,.7-2.76-.1-3.41L9.02,13.72c-1.44-.84-3.59,.16-4.82,2.27-1.23,2.11-.98,4.48,.43,5.3l15.28,7.09c.98,.37,2.26-.31,3.01-1.61"/>
  <path class="cls-1" d="M41.07,26.77c.78,1.3,2.06,1.98,3.01,1.63l15.28-7.11c1.42-.84,1.63-3.18,.43-5.29-1.23-2.11-3.39-3.1-4.82-2.28l-13.81,9.64c-.77,.66-.82,2.12-.08,3.42"/>
  <path class="cls-1" d="M32,42.47c1.49,0,2.75,.78,2.91,1.78l1.48,16.75c0,1.66-1.95,3-4.39,3s-4.39-1.34-4.39-3l1.49-16.75c.16-1,1.41-1.78,2.9-1.78"/>
  <path class="cls-1" d="M41.07,37.24c.78-1.3,2.06-1.99,3.01-1.62l15.28,7.09c1.42,.82,1.63,3.19,.43,5.3-1.23,2.1-3.39,3.09-4.82,2.27l-13.81-9.66c-.77-.65-.82-2.1-.08-3.39"/>
  <path class="cls-1" d="M22.93,37.23c.74,1.31,.7,2.75-.1,3.41l-13.81,9.64c-1.44,.84-3.59-.16-4.82-2.26-1.23-2.11-.98-4.48,.43-5.3l15.28-7.09c.98-.37,2.26,.31,3.01,1.6"/>
</svg>